<?xml version="1.0" encoding="UTF-8" standalone="no"?>
<!DOCTYPE svg PUBLIC "-//W3C//DTD SVG 1.1//EN" "http://www.w3.org/Graphics/SVG/1.1/DTD/svg11.dtd">
<svg width="100%" height="100%" viewBox="0 0 245 260" version="1.1" xmlns="http://www.w3.org/2000/svg" xmlns:xlink="http://www.w3.org/1999/xlink" xml:space="preserve" xmlns:serif="http://www.serif.com/" style="fill-rule:evenodd;clip-rule:evenodd;stroke-linejoin:round;stroke-miterlimit:2;">
    <g id="Background">
        <path d="M220.5,259.999L0,259.999C-3.057,256.697 0,251 0,246.5L0,0C3.082,-2.854 3.841,0 52.5,0L244.999,0C247.577,3.315 244.999,3.91 244.999,52.5L244.999,259.999C243.561,261.331 243.33,259.999 220.5,259.999Z" style="fill:rgb(253,253,254);"/>
        <path d="M208.912,205.502C208.846,206.61 217.357,233.227 163.57,249.724C103.98,268 35.484,241.22 35.272,213.499C34.445,105.423 33.742,103.84 40.912,97.994C48.686,91.655 55.557,94.129 55.609,88.501C55.622,87.03 44.93,20.512 109.476,7.379C143.968,0.361 187.223,24.629 188.153,66.509C188.568,85.232 182.825,89.338 193.406,92.798C194.966,93.308 206.848,97.192 208.73,106.446C209.079,108.161 208.899,107.954 208.912,205.502Z" style="fill:rgb(14,80,151);"/>
        <path d="M168.448,128.432C153.588,123.937 147.228,125.69 115.628,141.756C93.059,153.23 127.195,166.079 132.335,168.786C139.955,173.22 172.482,188.142 173.574,214.498C174.92,246.998 86.756,237.75 76.608,229.364C73.312,226.64 73.534,222.2 73.568,221.529C98.745,213.634 164.984,199.417 114.7,168.19C110.894,165.818 70.293,146.954 72.949,111.555C73.729,101.158 78.132,104.426 88.499,104.389C94.971,104.367 168.332,104.11 169.397,104.736C170.517,105.395 175.049,116.014 168.448,128.432Z" style="fill:rgb(253,253,254);"/>
        <path d="M164.88,75.499C164.673,87.915 167.189,90.47 162.5,90.504C155.944,90.553 90.026,91.04 80.543,90.357C78.487,90.209 69.506,35.067 117.544,28.854C125.124,27.873 138.826,29.792 148.12,36.995C167.849,52.287 164.684,72.904 164.88,75.499Z" style="fill:rgb(253,253,254);"/>
        <path d="M114.7,168.19C164.984,199.417 98.745,213.634 73.568,221.529C68.203,203.066 94.798,186.773 97.791,184.939C108.715,178.247 112.604,180.735 114.7,168.19Z" style="fill:rgb(20,126,197);"/>
        <path d="M168.448,128.432C158.009,157.288 133.151,157.479 133.805,166.476C133.95,168.472 132.404,168.677 132.335,168.786C127.195,166.079 93.059,153.23 115.628,141.756C147.228,125.69 153.588,123.937 168.448,128.432Z" style="fill:rgb(25,133,202);"/>
        <path d="M158.488,210.516C158.099,210.159 153.693,206.119 155.575,204.594C161.174,200.056 166.109,213.443 158.488,210.516Z" style="fill:rgb(20,128,201);"/>
        <path d="M107.524,196.532C101.087,198.427 103.23,191.916 106.522,192.37C110.69,192.945 107.751,196.275 107.524,196.532Z" style="fill:rgb(253,253,253);"/>
        <path d="M136.522,144.188C136.286,144.111 133.653,143.252 134.744,141.639C136.47,139.088 140.716,142.574 136.522,144.188Z" style="fill:rgb(248,252,253);"/>
        <path d="M164.85,182.227C164.48,180.43 163.742,179.969 165.486,179.468C168.286,178.662 168.484,183.628 164.85,182.227Z" style="fill:rgb(6,151,217);"/>
        <path d="M143.308,213.994C144.749,216.509 140.528,215.967 141.499,214.499C141.582,214.374 141.499,214.499 143.308,213.994Z" style="fill:rgb(15,137,233);"/>
        <path d="M152.642,188.217C153.986,190.462 149.954,190.529 150.859,188.704C150.925,188.572 150.859,188.704 152.642,188.217Z" style="fill:rgb(18,131,217);"/>
        <path d="M143.22,150.203C140.683,150.432 142.54,147.395 143.462,148.527C143.548,148.632 143.462,148.527 143.22,150.203Z" style="fill:rgb(197,232,245);"/>
        <path d="M127.911,213.471C129.39,212.394 129.518,211.571 130.177,212.698C132.288,216.308 128.072,213.575 127.911,213.471Z" style="fill:rgb(35,160,246);"/>
    </g>
</svg>
